<?xml version="1.0" encoding="utf-8"?>
<!-- Generator: Adobe Illustrator 21.0.0, SVG Export Plug-In . SVG Version: 6.00 Build 0)  -->
 <svg
                      version="1.1"
                      id="Layer_1"
                      xmlns="http://www.w3.org/2000/svg"
                      xmlns:xlink="http://www.w3.org/1999/xlink"
                      width="20px"
                      height="20px"
                      viewBox="0 0 512 512"
                      style="enable-background: new 0 0 512 512"
                      xml:space="preserve"
                    >
                      <g>
                        <path
                          d="M491.5,0h-471C9.2,0,0,9.2,0,20.5v471C0,502.8,9.2,512,20.5,512h471c11.3,0,20.5-9.2,20.5-20.5v-471
		C512,9.2,502.8,0,491.5,0z M311.4,152.9h88.6v21.6h-88.6V152.9z M256,330.8c-4.1,7.9-10.1,14.7-17.3,19.8
		c-7.6,5.2-15.9,9.1-24.8,11.3c-9.3,2.5-18.9,3.7-28.5,3.6h-106V147.3h103c10.4,0,19.9,1,28.5,2.8c8.6,1.8,15.9,4.9,22,9
		c6.1,4.2,10.9,9.7,14.3,16.6c3.3,6.8,5.1,15.4,5.1,25.6c0,11-2.5,20.1-7.5,27.5c-5.1,7.4-12.4,13.3-22.3,18
		c13.5,3.8,23.4,10.7,30,20.3c6.7,9.7,9.9,21.4,9.9,35.1C262.4,313.2,260.3,322.8,256,330.8z M434.4,297H320.3
		c0,12.4,4.3,24.3,10.8,30.7c6.5,6.3,15.9,9.5,28.1,9.5c8.8,0,16.3-2.2,22.7-6.7c6.3-4.4,10.2-9.1,11.6-14h38.3
		c-6.1,19-15.5,32.6-28.2,40.8c-12.5,8.2-27.9,12.3-45.8,12.3c-12.5,0-23.7-2-33.7-6c-9.7-3.8-18.4-9.5-25.5-17
		c-7.1-7.6-12.5-16.6-16.1-26.4c-3.9-10.8-5.8-22.2-5.7-33.7c0-11.8,2-22.8,5.8-33.1c7.4-19.9,22.7-35.8,42.2-44.1
		c10.4-4.4,21.6-6.5,33-6.4c13.4,0,25.1,2.6,35.2,7.8c9.7,5,18.2,12.2,24.7,21c6.5,8.8,11,18.8,13.9,30
		C434.2,273,435.2,284.7,434.4,297z M356.4,235.8c-6.9,0-12.7,1.2-17.2,3.6c-4.5,2.4-8.2,5.3-11,8.7c-2.7,3.3-4.7,7.1-5.8,11.1
		c-1,3.4-1.7,6.8-2,10.4H391c-1-11.1-4.9-19.3-10-25C375.7,238.8,367,235.8,356.4,235.8z M197.3,229.3c5.6-4,8.3-10.7,8.3-19.8
		c0.2-4.4-0.7-8.6-2.6-12.5c-1.7-3.1-4.3-5.8-7.4-7.6c-3.3-2-6.9-3.3-10.6-3.8c-4.1-0.8-8.3-1.2-12.4-1.1h-45v51h48.7
		C184.6,235.5,191.7,233.4,197.3,229.3z M204.9,275.4c-6.3-4.8-14.7-7.2-25.1-7.2h-52.4v60.2h51.3c4.8,0,9.2-0.4,13.5-1.3
		c4.3-0.9,8.1-2.4,11.4-4.6c3.3-2.1,5.9-5,7.9-8.7c1.9-3.7,2.9-8.4,2.9-14.1C214.4,288.3,211.2,280.3,204.9,275.4z"
                        />
                      </g>
                    </svg>
